<svg width="487" height="512" viewBox="0 0 487 512" fill="none" xmlns="http://www.w3.org/2000/svg">
<g clip-path="url(#clip0)">
<path d="M390.3 396.487C386.335 396.487 382.458 395.172 379.161 392.71C375.863 390.247 373.293 386.746 371.776 382.651C370.258 378.555 369.861 374.049 370.635 369.701C371.408 365.354 373.318 361.36 376.122 358.225C378.926 355.091 382.499 352.956 386.389 352.091C390.278 351.227 394.31 351.671 397.974 353.367C401.638 355.063 404.769 357.936 406.972 361.622C409.176 365.308 410.352 369.641 410.352 374.074C410.346 380.016 408.231 385.713 404.472 389.915C400.713 394.117 395.617 396.48 390.3 396.487Z" fill="#CCCCCC"/>
<path d="M399.555 373.212H391.072V362.436C391.072 362.208 390.99 361.988 390.846 361.827C390.701 361.665 390.505 361.574 390.3 361.574C390.096 361.574 389.9 361.665 389.755 361.827C389.611 361.988 389.529 362.208 389.529 362.436V373.212H381.046C380.842 373.212 380.645 373.303 380.501 373.464C380.356 373.626 380.275 373.845 380.275 374.074C380.275 374.302 380.356 374.522 380.501 374.683C380.645 374.845 380.842 374.936 381.046 374.936H389.529V385.711C389.529 385.94 389.611 386.159 389.755 386.321C389.9 386.483 390.096 386.573 390.3 386.573C390.505 386.573 390.701 386.483 390.846 386.321C390.99 386.159 391.072 385.94 391.072 385.711V374.936H399.555C399.759 374.936 399.956 374.845 400.1 374.683C400.245 374.522 400.326 374.302 400.326 374.074C400.326 373.845 400.245 373.626 400.1 373.464C399.956 373.303 399.759 373.212 399.555 373.212Z" fill="white"/>
<path d="M467.517 501.516L458.701 501.515L454.509 463.503L467.52 463.504L467.517 501.516Z" fill="#FFB8B8"/>
<path d="M452.403 498.699H469.407V510.666H441.698C441.698 509.094 441.974 507.538 442.512 506.086C443.051 504.634 443.839 503.315 444.833 502.204C445.827 501.093 447.007 500.211 448.306 499.61C449.605 499.008 450.997 498.699 452.403 498.699Z" fill="#2F2E41"/>
<path d="M432.428 501.516L423.611 501.515L419.419 463.503L432.431 463.504L432.428 501.516Z" fill="#FFB8B8"/>
<path d="M417.314 498.699H434.317V510.666H406.608C406.608 509.094 406.885 507.538 407.423 506.086C407.961 504.634 408.749 503.315 409.744 502.204C410.738 501.093 411.918 500.211 413.217 499.61C414.516 499.008 415.908 498.699 417.314 498.699Z" fill="#2F2E41"/>
<path d="M474.309 370.098C473.6 369.222 473.071 368.182 472.759 367.053C472.448 365.924 472.362 364.732 472.507 363.561C472.652 362.391 473.025 361.27 473.6 360.278C474.175 359.286 474.937 358.447 475.833 357.82L473.103 339.603L482.602 335.048L486.135 360.835C486.978 362.588 487.216 364.625 486.804 366.561C486.393 368.496 485.36 370.196 483.903 371.338C482.445 372.479 480.663 372.984 478.895 372.755C477.127 372.527 475.495 371.581 474.309 370.098Z" fill="#FFB8B8"/>
<path d="M399.936 361.489C400.765 360.757 401.441 359.829 401.915 358.773C402.389 357.717 402.65 356.557 402.68 355.376C402.709 354.195 402.507 353.02 402.087 351.936C401.667 350.852 401.039 349.883 400.248 349.1L405.633 331.636L396.937 325.39L389.642 350.171C388.552 351.743 388.016 353.709 388.136 355.694C388.255 357.679 389.022 359.546 390.291 360.941C391.56 362.336 393.243 363.163 395.02 363.264C396.798 363.365 398.547 362.734 399.936 361.489Z" fill="#FFB8B8"/>
<path d="M445.09 232.839C455.551 232.839 464.032 223.36 464.032 211.667C464.032 199.974 455.551 190.494 445.09 190.494C434.629 190.494 426.149 199.974 426.149 211.667C426.149 223.36 434.629 232.839 445.09 232.839Z" fill="#FFB8B8"/>
<path d="M399.351 348.425C399.026 348.424 398.702 348.373 398.39 348.273L392.869 346.501C391.988 346.216 391.243 345.553 390.797 344.657C390.35 343.76 390.24 342.703 390.488 341.716L401.882 296.75L417.77 253.152C419.35 248.818 422.651 245.975 426.384 245.734C428.089 245.641 429.782 246.103 431.257 247.063C432.733 248.023 433.927 249.441 434.696 251.145C435.551 252.969 436.02 254.987 436.068 257.045C436.115 259.103 435.74 261.145 434.972 263.016L416.912 307.161L402.556 346.025C402.294 346.735 401.85 347.341 401.279 347.769C400.708 348.196 400.037 348.424 399.351 348.425Z" fill="#3F3D56"/>
<path d="M455.779 229.423L445.255 229.632C444.159 229.656 443.073 229.392 442.085 228.861C441.097 228.329 440.234 227.546 439.566 226.574C438.899 225.602 438.445 224.468 438.241 223.264C438.038 222.059 438.09 220.818 438.394 219.641C438.619 218.79 438.788 217.922 438.9 217.044C439.018 216.086 439.041 215.117 438.969 214.153C438.902 213.188 438.544 212.277 437.954 211.57C437.363 210.862 436.575 210.4 435.719 210.259C434.862 210.118 433.988 210.306 433.24 210.793C432.492 211.28 431.914 212.037 431.601 212.939C429.831 212.967 426.061 212.322 424.292 212.35C420.534 201.584 428.722 187.495 437.536 182.203C446.522 176.809 458.185 182.297 461.63 193.541C466.41 193.637 470.294 198.907 470.91 204.839C471.526 210.771 469.342 216.965 466.002 221.512C462.662 226.059 458.277 229.373 455.779 229.423Z" fill="#2F2E41"/>
<path d="M421.185 497.967C420.332 497.962 419.511 497.607 418.877 496.97C418.242 496.332 417.839 495.457 417.744 494.51L413.839 347.761L463.032 351.675L463.07 352.028C474.186 456.044 470.386 492.051 470.347 492.402C470.319 492.934 470.194 493.455 469.979 493.93C469.764 494.406 469.463 494.827 469.096 495.167C468.728 495.507 468.302 495.759 467.844 495.906C467.386 496.054 466.905 496.094 466.432 496.025L455.561 496.316C454.737 496.212 453.973 495.781 453.409 495.102C452.845 494.423 452.517 493.54 452.485 492.613L442.327 386.324C442.264 386.048 442.116 385.805 441.91 385.639C441.703 385.472 441.45 385.393 441.196 385.413C440.935 385.413 440.681 385.513 440.479 385.698C440.276 385.884 440.137 386.142 440.086 386.428L436.162 493.066C436.204 494.055 435.904 495.025 435.323 495.775C434.743 496.524 433.928 496.996 433.045 497.092L421.53 497.947C421.415 497.96 421.3 497.967 421.185 497.967Z" fill="#F57E0F"/>
<path d="M441.597 365.295C441.303 365.295 441.009 365.29 440.714 365.28C426.569 364.804 415.502 352.842 412.448 349.186C412.059 348.72 411.779 348.154 411.633 347.538C411.488 346.921 411.481 346.274 411.614 345.654L419.774 307.066L417.609 273.518C417.269 268.862 417.815 264.178 419.212 259.775C420.608 255.372 422.823 251.35 425.711 247.973C428.117 245.132 431.042 242.902 434.287 241.434C437.532 239.967 441.021 239.296 444.518 239.468C458.288 240.203 469.151 253.961 469.249 270.788C469.401 296.852 468.715 298.643 468.49 299.231C461.618 317.159 465.371 342.324 466.685 349.61C466.802 350.26 466.769 350.933 466.589 351.564C466.408 352.196 466.086 352.766 465.654 353.22C458.096 361.236 450.006 365.295 441.597 365.295Z" fill="#3F3D56"/>
<path d="M477.122 355.486C476.337 355.486 475.576 355.187 474.962 354.64C474.349 354.093 473.919 353.329 473.744 352.474L465.325 311.478L454.042 264.62C453.56 262.633 453.492 260.549 453.843 258.528C454.195 256.508 454.956 254.604 456.068 252.963C457.079 251.425 458.467 250.248 460.063 249.574C461.66 248.899 463.397 248.756 465.065 249.161C468.712 250.089 471.547 253.502 472.465 258.068L481.685 303.954L486.283 350.453C486.382 351.473 486.116 352.495 485.544 353.297C484.971 354.098 484.138 354.615 483.227 354.733L477.52 355.461C477.388 355.478 477.255 355.486 477.122 355.486Z" fill="#3F3D56"/>
<path d="M23.7775 359.907C24.7765 359.142 25.6132 358.141 26.2286 356.975C26.844 355.809 27.2233 354.506 27.3396 353.159C27.4559 351.811 27.3065 350.451 26.9018 349.175C26.4971 347.899 25.8471 346.738 24.9975 345.773L28.2112 265.588L11.8498 267.641L12.8003 346.073C11.4448 347.776 10.6953 349.975 10.6937 352.255C10.6921 354.534 11.4386 356.735 12.7916 358.44C14.1447 360.145 16.0104 361.237 18.0352 361.507C20.0599 361.778 22.1031 361.208 23.7775 359.907Z" fill="#FFB8B8"/>
<path d="M53.6247 495.643L62.9369 497.473L72.1404 458.195L59.9393 455.494L53.6247 495.643Z" fill="#FFB8B8"/>
<path d="M79.3756 510.667L50.1094 504.916L52.0973 492.277L70.056 495.806C71.5409 496.098 72.9599 496.713 74.2319 497.618C75.5038 498.523 76.6039 499.699 77.4693 501.079C78.3347 502.459 78.9485 504.016 79.2755 505.661C79.6026 507.306 79.6366 509.007 79.3756 510.667Z" fill="#2F2E41"/>
<path d="M28.0655 500.853H37.5205L42.0181 460.089L28.064 460.09L28.0655 500.853Z" fill="#FFB8B8"/>
<path d="M55.755 510.665L26.0401 510.667L26.0395 497.834L44.2737 497.833C47.3186 497.833 50.2388 499.185 52.392 501.591C54.5451 503.998 55.7549 507.262 55.755 510.665Z" fill="#2F2E41"/>
<path d="M68.2859 489.69C68.1383 489.691 67.9909 489.681 67.8444 489.661L56.7159 488.638C56.2093 488.571 55.72 488.39 55.2779 488.105C54.8357 487.821 54.4499 487.439 54.1439 486.983C53.8379 486.526 53.6181 486.005 53.4978 485.451C53.3775 484.897 53.3592 484.321 53.4441 483.759L63.7201 419.381L56.7766 378.457C56.72 378.124 56.5577 377.826 56.3197 377.616C56.0817 377.407 55.7841 377.301 55.4817 377.318C55.1793 377.335 54.8925 377.473 54.6742 377.708C54.456 377.942 54.321 378.257 54.2941 378.594L45.6137 487.752C45.5183 488.848 45.046 489.859 44.2965 490.573C43.5469 491.286 42.5787 491.647 41.596 491.577L31.1117 491.141C30.1929 491.068 29.3297 490.622 28.6852 489.887C28.0406 489.151 27.6593 488.177 27.6132 487.149L26.9084 356.319L81.2635 348.725L85.0606 414.275L85.0455 414.344L71.9423 486.475C71.7427 487.391 71.2739 488.206 70.611 488.789C69.948 489.372 69.1293 489.689 68.2859 489.69Z" fill="#2F2E41"/>
<path d="M44.8292 213.627C55.2903 213.627 63.7707 204.148 63.7707 192.454C63.7707 180.761 55.2903 171.282 44.8292 171.282C34.3681 171.282 25.8877 180.761 25.8877 192.454C25.8877 204.148 34.3681 213.627 44.8292 213.627Z" fill="#FFB8B8"/>
<path d="M62.6768 365.881C59.7143 365.901 56.8088 364.972 54.3039 363.204C45.1286 356.794 34.7072 359.342 29.3117 361.431C28.7763 361.64 28.2054 361.712 27.6418 361.64C27.0782 361.568 26.5363 361.355 26.0568 361.016C25.5828 360.684 25.1822 360.235 24.8852 359.705C24.5881 359.175 24.4022 358.577 24.3414 357.955L14.5297 260.005C12.8855 243.594 21.7296 228.164 35.5586 223.317C36.0781 223.135 36.6065 222.962 37.1436 222.799C41.447 221.495 45.9539 221.26 50.3471 222.113C54.7403 222.965 58.913 224.883 62.5716 227.732C66.2983 230.612 69.415 234.37 71.7023 238.742C73.9896 243.114 75.3919 247.993 75.8107 253.035L84.0706 351.641C84.1268 352.28 84.0497 352.924 83.8454 353.523C83.641 354.123 83.3149 354.661 82.8928 355.096C79.9974 358.09 71.5935 365.88 62.6768 365.881Z" fill="#F57E0F"/>
<path d="M32.7996 281.01L10.6635 278.289C10.0337 278.212 9.42617 277.983 8.88237 277.62C8.33857 277.256 7.87126 276.766 7.51225 276.183C7.15323 275.599 6.91096 274.936 6.80193 274.238C6.69291 273.54 6.71969 272.825 6.88045 272.139L12.5149 248.135C12.8875 244.535 14.5219 241.247 17.0597 238.993C19.5976 236.738 22.8318 235.7 26.0533 236.107C29.2747 236.513 32.2204 238.331 34.2446 241.162C36.2687 243.992 37.2061 247.605 36.8512 251.207L37.6876 275.926C37.7114 276.634 37.5984 277.339 37.3564 277.993C37.1143 278.648 36.7489 279.236 36.285 279.719C35.8212 280.201 35.2697 280.566 34.6682 280.789C34.0668 281.012 33.4294 281.087 32.7996 281.01Z" fill="#F57E0F"/>
<path d="M83.982 356.474C84.8912 355.579 85.6138 354.473 86.0991 353.232C86.5843 351.992 86.8203 350.648 86.7905 349.294C86.7607 347.941 86.4657 346.611 85.9264 345.399C85.3871 344.187 84.6166 343.121 83.6692 342.278L78.2145 262.245L62.1824 266.279L71.5933 344.219C70.4313 346.092 69.9243 348.376 70.1685 350.639C70.4126 352.902 71.3909 354.987 72.918 356.497C74.4451 358.008 76.4148 358.84 78.454 358.835C80.4932 358.831 82.4601 357.991 83.982 356.474Z" fill="#FFB8B8"/>
<path d="M56.0359 275.979C55.5718 275.496 55.2063 274.908 54.9643 274.253C54.7223 273.599 54.6094 272.893 54.6335 272.186L55.47 247.467C55.115 243.865 56.0524 240.252 58.0765 237.422C60.1007 234.591 63.0464 232.773 66.2678 232.366C69.4893 231.96 72.7235 232.998 75.2614 235.253C77.7992 237.507 79.4337 240.795 79.8062 244.395L85.4407 268.399C85.6014 269.085 85.6282 269.8 85.5192 270.498C85.4102 271.196 85.1679 271.859 84.8089 272.443C84.4499 273.026 83.9826 273.516 83.4388 273.88C82.895 274.243 82.2874 274.472 81.6576 274.549L59.5216 277.27C58.8917 277.347 58.2542 277.272 57.6526 277.05C57.051 276.827 56.4996 276.461 56.0359 275.979Z" fill="#F57E0F"/>
<path d="M43.7026 214.425C43.3659 214.424 43.0304 214.381 42.7027 214.294L42.6065 214.268C25.9528 211.42 22.2724 200.638 21.4645 196.135C20.6284 191.473 21.5805 186.973 23.732 185.225C22.559 181.085 22.7473 177.414 24.2929 174.31C26.9885 168.896 32.8386 167.066 33.6232 166.842C38.2952 162.989 43.8851 165.561 44.9022 166.082C53.9395 162.345 57.3937 165.456 58.0184 166.151C62.0582 166.962 64.5205 168.706 65.3381 171.336C66.8735 176.277 62.0177 182.422 61.8102 182.681L61.7025 182.816L54.4686 183.201C53.7821 183.237 53.1103 183.435 52.4965 183.78C51.8828 184.126 51.3408 184.612 50.9059 185.206C50.471 185.801 50.1527 186.491 49.9718 187.233C49.7909 187.974 49.7514 188.749 49.8559 189.508C50.0517 190.488 50.299 191.454 50.5966 192.401C51.832 196.716 52.7577 200.403 51.5638 201.805C51.2933 202.076 50.9599 202.257 50.6019 202.326C50.2438 202.395 49.8756 202.351 49.5392 202.197C48.4082 201.86 47.6402 201.93 47.2576 202.408C46.6635 203.149 46.8449 205.024 47.7682 207.688C48.0579 208.531 48.1359 209.446 47.9937 210.334C47.8515 211.223 47.4946 212.051 46.9616 212.729C46.5603 213.258 46.0611 213.684 45.4985 213.976C44.9359 214.269 44.3232 214.422 43.7026 214.425Z" fill="#2F2E41"/>
<path d="M108.739 512H0.771201C0.566666 512 0.370495 511.909 0.225867 511.748C0.0812389 511.586 0 511.367 0 511.138C0 510.909 0.0812389 510.69 0.225867 510.528C0.370495 510.367 0.566666 510.276 0.771201 510.276H108.739C108.944 510.276 109.14 510.367 109.285 510.528C109.429 510.69 109.51 510.909 109.51 511.138C109.51 511.367 109.429 511.586 109.285 511.748C109.14 511.909 108.944 512 108.739 512Z" fill="#CCCCCC"/>
<path d="M485.085 512H377.117C376.913 512 376.716 511.909 376.572 511.748C376.427 511.586 376.346 511.367 376.346 511.138C376.346 510.909 376.427 510.69 376.572 510.528C376.716 510.367 376.913 510.276 377.117 510.276H485.085C485.29 510.276 485.486 510.367 485.631 510.528C485.775 510.69 485.856 510.909 485.856 511.138C485.856 511.367 485.775 511.586 485.631 511.748C485.486 511.909 485.29 512 485.085 512Z" fill="#CCCCCC"/>
<path d="M330.624 365.504H143.993C136.837 365.495 129.976 362.314 124.916 356.657C119.855 351.001 117.009 343.332 117.001 335.333V30.1714C117.009 22.1722 119.855 14.5033 124.916 8.84701C129.976 3.19075 136.837 0.00907842 143.993 0H330.624C337.78 0.00907842 344.641 3.19075 349.701 8.84701C354.761 14.5033 357.607 22.1722 357.616 30.1714V335.333C357.607 343.332 354.761 351.001 349.701 356.657C344.641 362.314 337.78 365.495 330.624 365.504Z" fill="white"/>
<path d="M301.318 242.258H173.299C160.222 242.188 160.167 219.922 173.299 219.845L301.318 219.845C314.386 219.914 314.457 242.182 301.318 242.258Z" fill="#CCCCCC"/>
<path d="M301.318 62.9034H173.299C160.222 62.8329 160.167 40.5666 173.299 40.4904L301.318 40.4904C314.386 40.5588 314.457 62.8268 301.318 62.9034Z" fill="#CCCCCC"/>
<path d="M301.318 283.636H173.299C160.222 283.566 160.167 261.299 173.299 261.223L301.318 261.223C314.386 261.292 314.457 283.56 301.318 283.636Z" fill="#CCCCCC"/>
<path d="M301.318 325.014H173.299C160.222 324.944 160.167 302.677 173.299 302.601L301.318 302.601C314.386 302.669 314.457 324.937 301.318 325.014Z" fill="#CCCCCC"/>
<path d="M299.004 192.95H175.612C172.238 192.945 169.004 191.445 166.619 188.779C164.233 186.112 162.891 182.497 162.887 178.726V101.488C162.891 97.7165 164.233 94.1012 166.619 91.4346C169.004 88.7681 172.238 87.2682 175.612 87.2639H299.004C302.378 87.2682 305.612 88.7681 307.998 91.4346C310.383 94.1012 311.725 97.7165 311.729 101.488V178.726C311.725 182.497 310.383 186.112 307.998 188.779C305.612 191.445 302.378 192.945 299.004 192.95Z" fill="#F57E0F"/>
<path d="M330.624 365.504H143.993C136.837 365.495 129.976 362.314 124.916 356.657C119.855 351.001 117.009 343.332 117.001 335.333V30.1714C117.009 22.1722 119.855 14.5033 124.916 8.84701C129.976 3.19075 136.837 0.00907842 143.993 0H330.624C337.78 0.00907842 344.641 3.19075 349.701 8.84701C354.761 14.5033 357.607 22.1722 357.616 30.1714V335.333C357.607 343.332 354.761 351.001 349.701 356.657C344.641 362.314 337.78 365.495 330.624 365.504ZM143.993 5.17223C138.063 5.17972 132.379 7.81596 128.186 12.5026C123.993 17.1892 121.635 23.5435 121.628 30.1714V335.333C121.635 341.961 123.993 348.315 128.186 353.002C132.379 357.688 138.063 360.325 143.993 360.332H330.624C336.553 360.325 342.238 357.688 346.43 353.002C350.623 348.315 352.982 341.961 352.988 335.333V30.1714C352.982 23.5435 350.623 17.1892 346.43 12.5026C342.238 7.81593 336.553 5.17971 330.624 5.17223H143.993Z" fill="#E6E6E6"/>
</g>
<defs>
<clipPath id="clip0">
<rect width="487" height="512" fill="white"/>
</clipPath>
</defs>
</svg>
